<svg id="Capa_1" data-name="Capa 1" xmlns="http://www.w3.org/2000/svg" viewBox="0 0 365.16 281.12"><title>CORREO</title><path d="M460.84,117.28a36.39,36.39,0,0,1,6.22,20.32c.06,66.14.2,132.28-.06,198.42-.08,21.61-18.43,39.81-40.08,40.94-2.16.11-4.33.15-6.49.15-90.63,0-181.26-.34-271.89.22C121.63,377.5,101.7,357,102,330.59c.71-63.63.23-127.28.23-190.92a40.68,40.68,0,0,1,6.14-22.08c14.4,16.31,28.5,32.27,42.57,48.24,28.17,32,56.15,64.1,84.53,95.87,26.89,30.1,71.46,30.28,98.23.23,41.51-46.61,82.62-93.57,123.89-140.4C458.67,120.31,459.58,118.94,460.84,117.28Z" transform="translate(-102 -96.21)" fill="#585656"/><path d="M440.31,99.65c-42.3,48-84.2,95.52-126.16,143-16.75,19-42,19.06-58.79.14-22.43-25.27-44.69-50.68-67-76l-59.1-67a33.05,33.05,0,0,1,15.87-3.5q139.66-.09,279.34,0A36.31,36.31,0,0,1,440.31,99.65Z" transform="translate(-102 -96.21)" fill="#585656"/></svg>