<svg id="Capa_1" data-name="Capa 1" xmlns="http://www.w3.org/2000/svg" viewBox="0 0 259.73 480.86"><title>FACE</title><path d="M148.91,516.65q-.12-102,0-203.91c0-3.7-1.3-4.36-4.61-4.34-22.49.12-45,0-67.47.14-4,0-5.44-.82-5.4-5.15q.3-38.73,0-77.46c0-3.75.77-5.08,4.86-5,22.66.22,45.32,0,68,.2,3.85,0,4.65-1.12,4.63-4.76-.1-24.65-.8-49.35.3-74,1.39-31.09,11.36-59,35.48-80.33C201.5,47.22,221.56,39.7,243.5,37.12c28.37-3.34,56.48.31,84.55,4.05,2.2.29,3.12,1.19,3.11,3.53q-.11,34.23,0,68.47c0,3-1.52,3.06-3.73,3-11.32,0-22.65-.12-34,0a89.94,89.94,0,0,0-13.42,1.07c-21.22,3.5-34.44,17.65-36.18,39.08-1.66,20.45-.3,41-.77,61.43-.09,4,2.4,3.16,4.59,3.16q37,0,74,0c6,0,6,0,5.08,5.93-4,25.64-8,51.28-11.78,77-.51,3.45-1.65,4.71-5.32,4.68-20.49-.18-41,0-61.47-.16-3.72,0-5.13.69-5.12,4.86q.22,101.72,0,203.42" transform="translate(-71.45 -35.81)" fill="#585656"/></svg>