<svg id="Capa_1" data-name="Capa 1" xmlns="http://www.w3.org/2000/svg" viewBox="0 0 330.25 330.25"><title>INSTAGRAM..</title><path d="M285.51,109.89H152.07A107.62,107.62,0,0,0,136.65,111C90.15,117.62,53.2,160,53.14,207q0,34,0,68,0,33.23,0,66.47a103.64,103.64,0,0,0,1,14.92c6.73,46.88,49,83.74,96.3,83.77q67.72,0,135.44,0c52.73,0,97.43-44.8,97.45-97.6q0-67.45,0-134.93C383.34,154.52,338.65,109.9,285.51,109.89Zm67.16,230.68c-.16,38.94-30.19,68.7-69.22,68.87-21.81.1-43.63,0-65.45,0v-.27c-23.31,0-46.68,1-69.92-.24-37.16-2-64.1-31.26-64.25-68.37q-.27-65.7,0-131.4c.21-38.53,29.94-68.34,68.45-68.58q66-.4,131.9,0c38.51.23,68.25,30,68.46,68.56Q353,274.86,352.67,340.57Z" transform="translate(-53.12 -109.88)" fill="#585656"/><path d="M220.72,193.86c-46,0-82.44,35.8-82.45,81a81.16,81.16,0,0,0,81.22,81.26c45,0,81.5-36.27,81.56-81C301.11,230.81,264.61,193.89,220.72,193.86Zm-1.3,133.29a52.15,52.15,0,1,1,52.64-52.1A52,52,0,0,1,219.42,327.15Z" transform="translate(-53.12 -109.88)" fill="#585656"/><path d="M305.63,168.87a19.53,19.53,0,0,0-19.2,19c-.23,10.4,8.71,19.32,19.34,19.32a19.16,19.16,0,1,0-.14-38.32Z" transform="translate(-53.12 -109.88)" fill="#585656"/></svg>