<svg id="Capa_1" data-name="Capa 1" xmlns="http://www.w3.org/2000/svg" viewBox="0 0 405.72 511.95"><title>WSP..</title><path d="M176.79,581.09a1.54,1.54,0,0,0,.22.81h10C183.69,580.44,180.24,580.77,176.79,581.09Z" transform="translate(-5.26 -69.96)" fill="#7ec67b"/><path d="M207,581.9h10a1.54,1.54,0,0,0,.22-.81C213.76,580.77,210.31,580.44,207,581.9Z" transform="translate(-5.26 -69.96)" fill="#7ec67b"/><path d="M362.79,136.36c-18.08-20-39.72-35.4-64.31-46.77-26.14-12.08-53.61-18.11-82.18-19.45A194.33,194.33,0,0,0,174.39,73a206.22,206.22,0,0,0-57.61,18.43,215.35,215.35,0,0,0-38.73,24.79,181.82,181.82,0,0,0-30.71,31.23,185.67,185.67,0,0,0-23.86,40.41A177.57,177.57,0,0,0,9.17,246.29c-.63,10-.79,20.15.74,30.27,1.49,9.78,2.7,19.68,5.53,29.1a182.58,182.58,0,0,0,17.37,40.58,5.71,5.71,0,0,1,.57,5q-13.74,47.43-27,95c-.34,1.21-2.08,2.69-.5,4,1.24,1,2.81-.15,4.11-.48q49.65-12.37,99.21-25a13.79,13.79,0,0,1,10,.94c29,13.72,59.35,21.1,93.23,20.43,5.52-.72,12.78,0,20.08-.9a223,223,0,0,0,58.45-15c35.46-14.73,64.19-37.83,86.58-69.08,21.56-30.11,32.2-63.73,33.32-100.46.39-12.51-1.32-24.93-3.73-37.3C400.71,190.05,385.31,161.29,362.79,136.36ZM339.15,346.25c-34.34,43.42-80.57,62-127.16,62.65-37.3-1.07-64.94-8.7-90.46-23.63a9.86,9.86,0,0,0-8.06-.89c-17.25,4.39-34.55,8.57-51.78,13.06-4.15,1.08-5,.41-3.74-3.77,4.65-15.62,8.94-31.34,13.63-46.95a10.36,10.36,0,0,0-1.52-9.65c-17-25.5-25.82-53.49-25-84.27,1.08-41.47,17.64-76.07,47.39-104.44,27.17-25.9,59.91-40.29,97.09-44,36.94-3.72,72.06,3,104.21,21.92,38.75,22.81,64.7,55.77,74.06,100.15C377.11,270.57,367.12,310.89,339.15,346.25Z" transform="translate(-5.26 -69.96)" fill="#585656"/><path d="M310.11,286.18c-10.26-8-21.57-14.45-34.33-17.62-7.3-1.81-13.89.18-18.62,6.49-2.69,3.59-5.21,7.31-7.82,11-4.12,5.73-6.64,6.56-13.18,4.05-24.57-9.44-44.74-24.62-60-46.19-7.49-10.61-7.47-10.64,1-20.27,1.1-1.24,2.19-2.51,3.19-3.83,4-5.26,6.42-11,4.49-17.67-3.33-11.59-8.23-22.52-15.81-31.93-4.85-6-11.5-8-19.28-6.27-10.38,2.37-17.26,9.12-22.2,17.92-8.77,15.59-8.3,31.74-.52,47.36,20.39,41,51.61,71,93.33,89.83,15.17,6.85,30.92,12.14,47.72,13.29A48,48,0,0,0,281,330.77c14-3.82,25.92-10.49,32.42-24.26C317.39,298.14,316.54,291.21,310.11,286.18Z" transform="translate(-5.26 -69.96)" fill="#585656"/></svg>